# xmcd CD database file
#
# Track frame offsets:
#	150
#	15159
#	46786
#	60844
#	81014
#	103516
#	118117
#	134334
#	155158
#	172763
#	196834
#	215735
#	237757
#	248951
#
# Disc length: 3484 seconds
#
# Revision: 0
# Processed by: cddbd v1.5.1PL0 Copyright (c) Steve Scherf et al.
# Submitted via: CDex 1.51
#
DISCID=ab0d9a0e
DTITLE=Джаз Оркестр Владимира Толкачева - Мундир Генерала
DYEAR=2005
DGENRE=Jazz
TTITLE0=Поезд на Чаттанугу (Мэк Гордон, Гарри Уоррен)
TTITLE1=Игра окончена (Юкка Линкола)
TTITLE2=Вдохновение (Чико О'Фаррилл)
TTITLE3=Джамп в час ночи (Каунт Бэйси, Бак Клайтон)
TTITLE4=Мы уходим (Эллин Фергюсон)
TTITLE5=Четыре брата (Джимми Джиуффри)
TTITLE6=В настроении (Джо Гарланд)
TTITLE7=Таксидо - место встречи джазменов (Эрскин Хокинс, Уильям Джонсон, Джулиан Дэш, Бадди Фэйн)
TTITLE8=Проповедовать и обучать (Джонни Барч)
TTITLE9=Королевская пчела (Сэмми Нэстико)
TTITLE10=Давайте испытаем себя (Снуки Янг)
TTITLE11=Тень твоей улыбки (Фрэдди Уэбстер, Джонни Мэндэлл)
TTITLE12=Прыжок в Солнечную долину (Джерри Грей)
TTITLE13=Маленький коричневый кувшинчик (традиционная, аранжировка Уильям Финеган)
EXTD=YEAR: 2005
EXTT0=
EXTT1=
EXTT2=
EXTT3=
EXTT4=
EXTT5=
EXTT6=
EXTT7=
EXTT8=
EXTT9=
EXTT10=
EXTT11=
EXTT12=
EXTT13=
PLAYORDER=
